<mxfile host="app.diagrams.net" modified="2024-10-20T21:26:05.683Z" agent="Mozilla/5.0 (Windows NT 10.0; Win64; x64) AppleWebKit/537.36 (KHTML, like Gecko) Chrome/129.0.0.0 Safari/537.36" etag="d1OaACyULeBfuNDmjjF9" version="24.5.4" type="device">
  <diagram name="Page-1" id="aMcyDYrhd5RX5itobbHJ">
    <mxGraphModel dx="830" dy="453" grid="1" gridSize="10" guides="1" tooltips="1" connect="1" arrows="1" fold="1" page="1" pageScale="1" pageWidth="850" pageHeight="1100" math="0" shadow="0">
      <root>
        <mxCell id="0" />
        <mxCell id="1" parent="0" />
        <mxCell id="KQBxRqDJ2WZM5aWLT5Ui-1" value="" style="image;html=1;image=img/lib/clip_art/computers/Laptop_128x128.png" vertex="1" parent="1">
          <mxGeometry x="50" y="340" width="80" height="80" as="geometry" />
        </mxCell>
        <mxCell id="KQBxRqDJ2WZM5aWLT5Ui-4" value="" style="image;html=1;image=img/lib/clip_art/telecommunication/Signal_tower_on_128x128.png" vertex="1" parent="1">
          <mxGeometry x="130" y="350" width="80" height="80" as="geometry" />
        </mxCell>
        <mxCell id="KQBxRqDJ2WZM5aWLT5Ui-5" value="" style="image;html=1;image=img/lib/clip_art/telecommunication/Signal_tower_on_128x128.png" vertex="1" parent="1">
          <mxGeometry x="530" y="350" width="80" height="80" as="geometry" />
        </mxCell>
        <mxCell id="KQBxRqDJ2WZM5aWLT5Ui-6" value="" style="shape=mxgraph.signs.transportation.helicopter;html=1;pointerEvents=1;fillColor=#000000;strokeColor=none;verticalLabelPosition=bottom;verticalAlign=top;align=center;" vertex="1" parent="1">
          <mxGeometry x="610" y="350" width="90" height="60" as="geometry" />
        </mxCell>
        <mxCell id="KQBxRqDJ2WZM5aWLT5Ui-7" value="868 MHz" style="text;html=1;align=center;verticalAlign=middle;resizable=0;points=[];autosize=1;strokeColor=none;fillColor=none;" vertex="1" parent="1">
          <mxGeometry x="350" y="340" width="70" height="30" as="geometry" />
        </mxCell>
        <mxCell id="KQBxRqDJ2WZM5aWLT5Ui-8" value="ADDR: 0x2121&lt;br&gt;CHAN: 18" style="text;html=1;align=left;verticalAlign=middle;resizable=0;points=[];autosize=1;strokeColor=none;fillColor=none;" vertex="1" parent="1">
          <mxGeometry x="130" y="430" width="100" height="40" as="geometry" />
        </mxCell>
        <mxCell id="KQBxRqDJ2WZM5aWLT5Ui-9" value="" style="shape=mxgraph.arrows2.wedgeArrowDashed2;html=1;bendable=0;startWidth=19.42857142857143;stepSize=15;rounded=0;" edge="1" parent="1">
          <mxGeometry width="100" height="100" relative="1" as="geometry">
            <mxPoint x="240" y="390" as="sourcePoint" />
            <mxPoint x="520" y="390" as="targetPoint" />
          </mxGeometry>
        </mxCell>
        <mxCell id="KQBxRqDJ2WZM5aWLT5Ui-10" value="ADDR: 0x4242&lt;br&gt;CHAN: 18" style="text;html=1;align=left;verticalAlign=middle;resizable=0;points=[];autosize=1;strokeColor=none;fillColor=none;" vertex="1" parent="1">
          <mxGeometry x="530" y="430" width="100" height="40" as="geometry" />
        </mxCell>
      </root>
    </mxGraphModel>
  </diagram>
</mxfile>
